Coordinates
version=1
nRows=24
nColumns=38
inDegrees=no

Units are S.I. units (second, meters, Newtons, ...)
If the header above contains a line with 'inDegrees', this indicates whether rotational values are in degrees (yes) or radians (no).

endheader
time	pelvis_tilt	pelvis_list	pelvis_rotation	pelvis_tx	pelvis_ty	pelvis_tz	hip_flexion_r	hip_adduction_r	hip_rotation_r	knee_angle_r	ankle_angle_r	subtalar_angle_r	mtp_angle_r	hip_flexion_l	hip_adduction_l	hip_rotation_l	knee_angle_l	ankle_angle_l	subtalar_angle_l	mtp_angle_l	lumbar_extension	lumbar_bending	lumbar_rotation	arm_flex_r	arm_add_r	arm_rot_r	elbow_flex_r	pro_sup_r	wrist_flex_r	wrist_dev_r	arm_flex_l	arm_add_l	arm_rot_l	elbow_flex_l	pro_sup_l	wrist_flex_l	wrist_dev_l
1.86	1.33254	1.5126	-2.71584	0.721944	1.07327	0.962395	-0.155946	-0.00500054	-0.108593	0	0.0412832	0	0	0.250084	0.0411334	-0.105849	0.0282403	-0.0777036	0	0	-0.0982253	0.0640212	0.250721	0.617531	-0.0676253	0.388762	0.647548	1.5708	0	0	-0.169853	-0.0819185	-0.229432	0.336981	1.39359	0	0
1.87	1.33293	1.51182	-2.71334	0.724111	1.06707	0.961737	-0.163575	-0.00614863	-0.110477	0	0.0482951	0	0	0.247841	0.046219	-0.104106	0.0214099	-0.0772883	0	0	-0.0952782	0.0635921	0.251725	0.620278	-0.0633215	0.394513	0.649204	1.5708	0	0	-0.171265	-0.0830019	-0.226985	0.337314	1.39215	0	0
1.88	1.32831	1.51106	-2.70584	0.726243	1.06076	0.961055	-0.171585	-0.0070891	-0.112662	0	0.055502	0	0	0.246746	0.0506692	-0.104789	0.0201958	-0.0735447	0	0	-0.092523	0.0630325	0.25313	0.622231	-0.0595088	0.400228	0.651355	1.5708	0	0	-0.172522	-0.0845553	-0.224227	0.337965	1.39126	0	0
1.89	1.3154	1.51045	-2.69017	0.72838	1.05431	0.960354	-0.180076	-0.00759684	-0.114965	0	0.0628114	0	0	0.246561	0.0543299	-0.108701	0.02424	-0.0679766	0	0	-0.0899165	0.062653	0.254914	0.623494	-0.0560058	0.405888	0.653697	1.5708	0	0	-0.17411	-0.0864813	-0.221026	0.339787	1.39005	0	0
1.9	1.30947	1.51054	-2.68266	0.730402	1.04786	0.959591	-0.187181	-0.00776593	-0.115609	0	0.0700783	0	0	0.248177	0.0567614	-0.114136	0.0325414	-0.0632009	0	0	-0.0866859	0.062433	0.258208	0.624396	-0.0525844	0.410046	0.65564	1.5708	0	0	-0.175477	-0.0882133	-0.219026	0.342763	1.38734	0	0
1.91	1.3161	1.50832	-2.68714	0.732889	1.04149	0.958955	-0.194288	-0.0113902	-0.118223	0.00147778	0.0780426	0	0	0.252736	0.0658453	-0.125424	0.0518885	-0.056028	0	0	-0.0838501	0.0600426	0.261162	0.624519	-0.050047	0.413313	0.657814	1.5708	0	0	-0.176605	-0.0894767	-0.217425	0.346557	1.38288	0	0
1.92	1.30245	1.50836	-2.67303	0.734952	1.03485	0.958195	-0.200695	-0.0119336	-0.120441	0.00717185	0.0864214	0	0	0.254173	0.0668116	-0.131382	0.0652086	-0.0560635	0	0	-0.0810324	0.0598364	0.265984	0.623821	-0.0474153	0.416123	0.660319	1.5708	0	0	-0.178419	-0.0915312	-0.214877	0.351081	1.37869	0	0
1.93	1.27186	1.51001	-2.64318	0.736734	1.02791	0.957344	-0.207082	-0.01008	-0.121305	0.0133756	0.0945722	0	0	0.251474	0.0615927	-0.129567	0.0704865	-0.0640378	0	0	-0.0780511	0.0611882	0.271965	0.622232	-0.0445968	0.418551	0.663163	1.5708	0	0	-0.181211	-0.0939587	-0.212723	0.357196	1.37481	0	0
1.94	1.25858	1.5104	-2.62981	0.738976	1.02103	0.956532	-0.212805	-0.0105986	-0.123664	0.020471	0.103179	0	0	0.251723	0.0619677	-0.131544	0.0851151	-0.0678579	0	0	-0.0745033	0.0611819	0.27707	0.619768	-0.042283	0.419977	0.666554	1.5708	0	0	-0.184415	-0.0958536	-0.211226	0.364452	1.3708	0	0
1.95	1.24849	1.51155	-2.62027	0.74123	1.01407	0.955635	-0.217283	-0.0107796	-0.126147	0.0288334	0.112213	0	0	0.252615	0.061272	-0.13467	0.101301	-0.0694726	0	0	-0.070251	0.061673	0.282786	0.616404	-0.0403097	0.420707	0.670981	1.5708	0	0	-0.188463	-0.0978999	-0.209383	0.37329	1.3668	0	0
1.96	1.24457	1.51307	-2.61757	0.743519	1.00702	0.95465	-0.220954	-0.0111279	-0.128187	0.037751	0.121306	0	0	0.253494	0.0601433	-0.138855	0.117096	-0.0691555	0	0	-0.0653889	0.0622071	0.289048	0.61197	-0.0388133	0.420716	0.676848	1.5708	0	0	-0.192931	-0.100022	-0.207212	0.382781	1.3628	0	0
1.97	1.24648	1.5146	-2.62115	0.745858	0.999897	0.953628	-0.224052	-0.0119496	-0.130035	0.0472754	0.130321	0	0	0.253605	0.058975	-0.142903	0.130836	-0.0687444	0	0	-0.0601221	0.0624882	0.295321	0.606617	-0.0371772	0.419344	0.683448	1.5708	0	0	-0.197759	-0.102018	-0.205568	0.392733	1.35902	0	0
1.98	1.26253	1.51592	-2.63917	0.748269	0.992738	0.952598	-0.225212	-0.0139817	-0.134248	0.0596019	0.14088	0	0	0.253349	0.0579902	-0.147175	0.142593	-0.0700786	0	0	-0.0540515	0.0620068	0.301953	0.599826	-0.0353126	0.415198	0.690807	1.5708	0	0	-0.207592	-0.107569	-0.175873	0.413914	1.28809	0	0
1.99	1.26914	1.51699	-2.64766	0.750805	0.985552	0.951677	-0.228164	-0.0158916	-0.136035	0.0695036	0.148476	0	0	0.250994	0.0571383	-0.15068	0.150902	-0.0769864	0	0	-0.0488263	0.0615257	0.306795	0.593575	-0.0328969	0.413645	0.697034	1.5708	0	0	-0.212263	-0.108779	-0.182534	0.421876	1.29665	0	0
2	1.2865	1.51771	-2.66676	0.753431	0.978391	0.950832	-0.229751	-0.0188	-0.139492	0.0814626	0.156655	0	0	0.248712	0.0569091	-0.154941	0.157568	-0.0896168	0	0	-0.0433633	0.0601706	0.310945	0.586439	-0.0300992	0.410895	0.703965	1.5708	0	0	-0.217816	-0.11023	-0.187571	0.431993	1.30273	0	0
2.01	1.31751	1.517	-2.69876	0.756204	0.971347	0.950217	-0.23046	-0.0237355	-0.144586	0.0950621	0.164523	0	0	0.24661	0.0585629	-0.158171	0.163468	-0.104065	0	0	-0.0381783	0.0568687	0.313953	0.578818	-0.0269502	0.407796	0.711031	1.5708	0	0	-0.222794	-0.11172	-0.190858	0.441657	1.30716	0	0
2.02	1.36402	1.5142	-2.74505	0.759193	0.964513	0.949928	-0.230233	-0.0313708	-0.151436	0.110311	0.171525	0	0	0.245796	0.0631636	-0.159386	0.172237	-0.109784	0	0	-0.0334476	0.0509509	0.315542	0.570606	-0.0234976	0.404691	0.71815	1.5708	0	0	-0.226429	-0.113679	-0.192881	0.449239	1.31052	0	0
2.03	1.41271	1.5098	-2.79203	0.762337	0.957898	0.949995	-0.229328	-0.0405991	-0.159749	0.126867	0.176765	0	0	0.246879	0.0697505	-0.158615	0.187042	-0.101285	0	0	-0.0294843	0.0431651	0.315466	0.562212	-0.0198535	0.402059	0.724966	1.5708	0	0	-0.228246	-0.115679	-0.194246	0.454574	1.31149	0	0
2.04	1.45343	1.50514	-2.83015	0.765512	0.951399	0.950369	-0.227317	-0.04989	-0.169216	0.145406	0.18017	0	0	0.249159	0.07655	-0.156215	0.206118	-0.0851795	0	0	-0.0260319	0.0352789	0.314281	0.553896	-0.0158832	0.398131	0.730645	1.5708	0	0	-0.228673	-0.117663	-0.19525	0.457226	1.31119	0	0
2.05	1.48741	1.50156	-2.86137	0.768611	0.944856	0.95094	-0.224444	-0.0580571	-0.178287	0.164956	0.181674	0	0	0.251563	0.0823256	-0.152602	0.22504	-0.0717565	0	0	-0.0221486	0.0287624	0.312744	0.544438	-0.0121123	0.395205	0.736567	1.5708	0	0	-0.228659	-0.119959	-0.195409	0.457617	1.31092	0	0
2.06	1.51985	1.49973	-2.89106	0.77173	0.93825	0.951574	-0.220546	-0.0646131	-0.186032	0.185143	0.181409	0	0	0.253316	0.0869492	-0.147172	0.240915	-0.0638158	0	0	-0.0172681	0.0245158	0.311178	0.533444	-0.00936046	0.395493	0.743956	1.5708	0	0	-0.228748	-0.121909	-0.194367	0.457361	1.31071	0	0
2.07	1.55406	1.49947	-2.92256	0.774923	0.931624	0.952188	-0.21528	-0.0699477	-0.192735	0.206498	0.179978	0	0	0.253751	0.0905307	-0.140695	0.253074	-0.0572192	0	0	-0.011482	0.0223769	0.309791	0.521011	-0.00818567	0.39921	0.753517	1.5708	0	0	-0.229243	-0.123297	-0.192564	0.45771	1.31041	0	0
2.08	1.59413	1.50003	-2.96034	0.778208	0.924988	0.952719	-0.208475	-0.0751361	-0.198379	0.229344	0.178047	0	0	0.252131	0.0937756	-0.134425	0.26066	-0.0491434	0	0	-0.00532874	0.0212545	0.307374	0.508245	-0.00731852	0.406159	0.764261	1.5708	0	0	-0.231854	-0.12394	-0.192969	0.461366	1.30897	0	0
2.09	1.63966	1.50046	-3.00447	0.78152	0.9184	0.953188	-0.200113	-0.0812471	-0.202779	0.25405	0.17588	0	0	0.248087	0.0971906	-0.130294	0.262873	-0.0416075	0	0	0.00115823	0.0203309	0.30586	0.495049	-0.00789098	0.415147	0.776374	1.5708	0	0	-0.235277	-0.12432	-0.194046	0.466168	1.30828	0	0
